#!OML:ASF E:\emotionWalksFemale\Project 1\Capture day 1\Session 1\Female1.ASF
:FULLY-SPECIFIED
:DEGREES
3686
root 9.65235 15.2577 42.2895 -175.263 9.27809 -178.1
lowerback 8.36439 -1.05659 0.0687131
upperback -2.42589 -1.28968 1.38037
thorax -7.21844 -0.592602 1.5975
lowerneck -7.47685 0.0793852 -1.52513
upperneck 33.2625 4.46349 -1.40952
head 12.2007 2.85597 0.547543
rclavicle 2.59787e-014 -1.59028e-015
rhumerus -51.0703 -0.885316 -72.2198
rradius 81.1924
rwrist -8.46573
rhand 3.48376 -53.6248
rfingers 7.12502
rthumb -151.077 1898.6
lclavicle 2.59787e-014 -1.59028e-015
lhumerus -25.4193 -4.33006 85.2326
lradius 48.7013
lwrist -5.81597
lhand -5.20582 -36.6476
lfingers 7.12502
lthumb 20.5956 -7.72026
rfemur -13.9971 21.8678 23.3674
rtibia 26.5642
rfoot -20.1922 -21.722
rtoes -16.2598
lfemur -13.911 -24.35 -18.5139
ltibia 30.8288
lfoot -41.5198 26.7396
ltoes -3.99854
3687
root 9.66925 15.2588 42.3019 -175.141 9.04174 -177.915
lowerback 8.58649 -1.14091 0.153073
upperback -2.53617 -1.37557 1.51538
thorax -7.46102 -0.630976 1.71273
lowerneck -7.45446 0.0566512 -1.49898
upperneck 33.216 4.43724 -1.48915
head 12.1796 2.83634 0.507935
rclavicle -1.59525e-014 1.09332e-015
rhumerus -50.2843 -0.679562 -72.4182
rradius 83.3262
rwrist -9.38964
rhand 3.71807 -53.6796
rfingers 7.12502
rthumb -150.854 1898.58
lclavicle -1.59525e-014 1.09332e-015
lhumerus -26.0651 -4.41623 85.6509
lradius 48.7956
lwrist -5.7718
lhand -4.812 -37.0526
lfingers 7.12502
lthumb 20.974 -8.16662
rfemur -14.0057 21.8514 23.6087
rtibia 26.2595
rfoot -19.9595 -21.7701
rtoes -15.3276
lfemur -14.3495 -23.5909 -18.081
ltibia 31.1353
lfoot -41.7077 25.8692
ltoes -2.65895
3688
root 9.68341 15.2582 42.3038 -175.114 8.90603 -177.827
lowerback 8.6176 -1.16293 0.256374
upperback -2.53455 -1.38793 1.55917
thorax -7.47843 -0.639807 1.70334
lowerneck -7.35082 0.0606775 -1.53109
upperneck 33.1429 4.4097 -1.39987
head 12.1242 2.8323 0.539974
rclavicle -1.33558e-015 -3.27995e-015
rhumerus -51.8395 0.822183 -72.9785
rradius 87.9703
rwrist -11.3187
rhand 2.82417 -54.1379
rfingers 7.12502
rthumb -151.707 1897.98
lclavicle -1.33558e-015 -3.27995e-015
lhumerus -26.5996 -4.34762 86.0245
lradius 48.8434
lwrist -5.13253
lhand -3.23669 -37.6967
lfingers 7.12502
lthumb 22.4868 -8.98596
rfemur -14.0267 21.9001 23.7669
rtibia 26.276
rfoot -20.0002 -21.6424
rtoes -15.1036
lfemur -14.3697 -24.1418 -17.9056
ltibia 31.1077
lfoot -41.8138 26.4335
ltoes -2.4669
3689
root 9.69813 15.2581 42.2979 -175.141 8.98925 -177.854
lowerback 8.52867 -1.08869 0.253744
upperback -2.48709 -1.29306 1.53641
thorax -7.37922 -0.595074 1.6634
lowerneck -7.49352 -0.018734 -1.45101
upperneck 33.2211 4.22679 -1.25228
head 12.1815 2.77278 0.563008
rclavicle 1.92759e-014 -2.51463e-014
rhumerus -49.4817 0.294281 -73.2206
rradius 88.5168
rwrist -11.8467
rhand 2.28295 -54.6979
rfingers 7.12502
rthumb -152.225 1897.33
lclavicle 1.92759e-014 -2.51463e-014
lhumerus -27.2745 -4.83408 86.6845
lradius 48.8209
lwrist -5.41336
lhand -4.707 -36.7577
lfingers 7.12502
lthumb 21.0749 -7.88298
rfemur -13.9847 21.9737 23.8026
rtibia 26.2771
rfoot -19.8901 -21.4198
rtoes -15.0407
lfemur -14.2978 -23.642 -17.9112
ltibia 31.0623
lfoot -41.5402 26.6919
ltoes -3.34917
3690
root 9.71368 15.26 42.2912 -175.025 9.4653 -177.984
lowerback 8.29512 -0.897393 0.0583058
upperback -2.51194 -1.06535 1.49754
thorax -7.27382 -0.476944 1.6942
lowerneck -7.33493 -0.00736574 -1.27415
upperneck 33.0487 4.20532 -1.3432
head 12.0822 2.77319 0.487814
rclavicle 1.6027e-015 0
rhumerus -48.9761 0.822284 -73.6548
rradius 91.0543
rwrist -12.7415
rhand 1.42219 -54.6721
rfingers 7.12502
rthumb -153.048 1897.23
lclavicle 1.6027e-015 0
lhumerus -28.0019 -5.1219 87.1843
lradius 48.8671
lwrist -5.39627
lhand -5.41118 -36.6157
lfingers 7.12502
lthumb 20.3983 -7.66712
rfemur -14.1976 21.8961 23.6419
rtibia 26.3362
rfoot -19.4767 -21.0883
rtoes -15.4224
lfemur -14.2024 -23.9576 -18.0531
ltibia 30.9525
lfoot -41.9774 27.3253
ltoes -2.12687
3691
root 9.73662 15.2668 42.2695 -174.94 8.85662 -178.138
lowerback 7.82896 -1.08253 -0.120406
upperback -2.48781 -1.33121 1.5586
thorax -6.96674 -0.60012 1.88407
lowerneck -7.28216 -0.149586 -1.32607
upperneck 32.9047 3.99321 -1.44291
head 12.0132 2.65291 0.428322
rclavicle 1.42255e-015 5.76476e-015
rhumerus -48.3924 1.38569 -73.8093
rradius 93.5801
rwrist -13.0754
rhand -1.61255 -56.4368
rfingers 7.12502
rthumb -155.955 1895.05
lclavicle 1.42255e-015 5.76476e-015
lhumerus -28.8418 -5.03378 87.6317
lradius 49.0979
lwrist -5.43375
lhand -5.1755 -36.7974
lfingers 7.12502
lthumb 20.6248 -7.87312
rfemur -14.1013 22.032 23.6256
rtibia 26.38
rfoot -19.4701 -22.0506
rtoes -15.2188
lfemur -14.3174 -23.5502 -18.0202
ltibia 30.8465
lfoot -41.1742 27.3108
ltoes -4.52085
3692
root 9.75024 15.2678 42.259 -174.946 8.43014 -178.178
lowerback 7.73976 -1.20943 -0.115694
upperback -2.46451 -1.49452 1.63448
thorax -6.88363 -0.678815 1.98008
lowerneck -7.18042 -0.00843862 -1.53622
upperneck 32.6516 4.09719 -1.17554
head 11.8782 2.69678 0.568329
rclavicle 1.29831e-014 1.98785e-015
rhumerus -47.7458 2.22785 -74.1846
rradius 96.3782
rwrist -14.2122
rhand 1.67213 -54.8126
rfingers 7.12502
rthumb -152.809 1897.13
lclavicle 1.29831e-014 1.98785e-015
lhumerus -29.3248 -5.39303 88.1275
lradius 48.8808
lwrist -4.71441
lhand -4.3948 -36.6337
lfingers 7.12502
lthumb 21.3748 -7.79264
rfemur -14.0007 22.0652 23.6923
rtibia 26.4176
rfoot -19.7333 -22.348
rtoes -14.5784
lfemur -14.2991 -23.9921 -17.9765
ltibia 30.7807
lfoot -41.1724 27.6128
ltoes -3.31468
3693
root 9.76153 15.265 42.2549 -175.018 8.18281 -178.154
lowerback 7.90435 -1.28595 -0.0124548
upperback -2.50234 -1.5802 1.66849
thorax -7.01763 -0.722415 1.97516
lowerneck -7.30552 -0.0179107 -1.5796
upperneck 32.7687 4.06754 -1.04562
head 11.9473 2.69356 0.626122
rclavicle -1.64494e-014 8.15017e-015
rhumerus -46.9322 3.01451 -74.4765
rradius 98.884
rwrist -14.4591
rhand 1.84688 -54.9683
rfingers 7.12502
rthumb -152.642 1897
lclavicle -1.64494e-014 8.15017e-015
lhumerus -30.1106 -5.31078 88.4706
lradius 48.9736
lwrist -4.28204
lhand -3.04733 -36.5405
lfingers 7.12502
lthumb 22.6685 -7.85189
rfemur -13.8526 21.9985 23.8275
rtibia 26.4157
rfoot -19.9851 -22.0786
rtoes -13.5607
lfemur -14.2371 -23.9403 -17.9228
ltibia 30.7766
lfoot -41.213 27.3819
ltoes -1.70389
3694
root 9.77563 15.2608 42.2514 -175.078 8.19501 -178.09
lowerback 8.0346 -1.25393 0.0111834
upperback -2.53647 -1.52827 1.71561
thorax -7.13012 -0.694887 2.00898
lowerneck -7.03246 0.0178885 -1.7591
upperneck 32.4922 3.99508 -0.719094
head 11.7662 2.67554 0.757415
rclavicle -2.00524e-014 7.35503e-015
rhumerus -45.9982 3.84147 -74.8094
rradius 101.288
rwrist -14.7438
rhand 1.84683 -54.7829
rfingers 7.12502
rthumb -152.642 1897.18
lclavicle -2.00524e-014 7.35503e-015
lhumerus -30.965 -5.3917 88.807
lradius 48.943
lwrist -4.26654
lhand -2.67119 -36.8493
lfingers 7.12502
lthumb 23.0295 -8.20519
rfemur -13.7304 21.7877 24.0042
rtibia 26.3964
rfoot -19.9404 -21.696
rtoes -12.9943
lfemur -14.1482 -23.7598 -17.8466
ltibia 30.8133
lfoot -41.3854 27.2653
ltoes -0.262703
3695
root 9.78942 15.258 42.2473 -175.219 8.30718 -178.085
lowerback 8.21445 -1.16409 -0.0463516
upperback -2.5074 -1.41006 1.75645
thorax -7.20432 -0.632618 2.07238
lowerneck -7.4031 -0.075455 -1.3642
upperneck 32.7263 3.94585 -1.13603
head 11.9549 2.64795 0.540098
rclavicle 2.63141e-014 -1.98785e-016
rhumerus -45.0862 4.5405 -75.105
rradius 103.883
rwrist -15.3598
rhand 2.92525 -54.0954
rfingers 7.12502
rthumb -151.611 1898.04
lclavicle 2.63141e-014 -1.98785e-016
lhumerus -31.8239 -5.6151 89.2982
lradius 48.7773
lwrist -5.40429
lhand -4.33266 -36.197
lfingers 7.12502
lthumb 21.4345 -7.36278
rfemur -13.5579 21.5741 24.1334
rtibia 26.3915
rfoot -19.6896 -21.5198
rtoes -12.984
lfemur -13.9347 -23.5942 -17.8785
ltibia 30.8302
lfoot -41.5934 27.2416
ltoes 0.790396
